<svg width="16" height="16" viewBox="0 0 16 16" fill="none" xmlns="http://www.w3.org/2000/svg">
<path fill-rule="evenodd" clip-rule="evenodd" d="M2.66642 6C2.60274 5.9385 2.55195 5.86494 2.51701 5.7836C2.48208 5.70227 2.46368 5.61479 2.46292 5.52627C2.46215 5.43775 2.47901 5.34996 2.51253 5.26803C2.54606 5.1861 2.59556 5.11166 2.65815 5.04907C2.72075 4.98647 2.79518 4.93697 2.87711 4.90345C2.95904 4.86993 3.04683 4.85306 3.13535 4.85383C3.22387 4.8546 3.31135 4.87299 3.39269 4.90793C3.47402 4.94287 3.54758 4.99366 3.60908 5.05733L7.52842 8.97667C7.65343 9.10165 7.82297 9.17186 7.99975 9.17186C8.17653 9.17186 8.34606 9.10165 8.47108 8.97667L12.3904 5.05666C12.5155 4.93166 12.6851 4.86147 12.862 4.86153C13.0388 4.86159 13.2084 4.9319 13.3334 5.057C13.4584 5.18209 13.5286 5.35172 13.5286 5.52857C13.5285 5.70541 13.4582 5.87499 13.3331 6L8.47108 10.862C8.34606 10.987 8.17653 11.0572 7.99975 11.0572C7.82297 11.0572 7.65343 10.987 7.52842 10.862L2.66642 6Z" fill="#AD7955"/>
</svg>
