<svg width="40" height="40" viewBox="0 0 40 40" fill="none" xmlns="http://www.w3.org/2000/svg">
<rect width="40" height="40" rx="8" fill="#222222"/>
<path d="M22.9998 27C22.8682 27.0008 22.7377 26.9756 22.6159 26.9258C22.4941 26.876 22.3833 26.8027 22.2898 26.71L16.2898 20.71C16.1036 20.5227 15.999 20.2692 15.999 20.005C15.999 19.7408 16.1036 19.4874 16.2898 19.3L22.2898 13.3C22.4811 13.1362 22.7272 13.0506 22.9789 13.0603C23.2305 13.07 23.4693 13.1744 23.6474 13.3525C23.8255 13.5306 23.9298 13.7693 23.9395 14.021C23.9492 14.2726 23.8636 14.5187 23.6998 14.71L18.4098 20L23.6998 25.29C23.8402 25.4293 23.9362 25.6071 23.9756 25.8009C24.015 25.9947 23.996 26.1958 23.9211 26.3789C23.8462 26.5619 23.7186 26.7186 23.5547 26.8292C23.3907 26.9397 23.1976 26.9992 22.9998 27Z" fill="white"/>
</svg>
