<svg width="25" height="24" viewBox="0 0 25 24" fill="none" xmlns="http://www.w3.org/2000/svg">
<g clip-path="url(#clip0_1343_2198)">
<path d="M16.4507 6.63602L8.96525 6.63602C8.70308 6.63147 8.45319 6.52412 8.2694 6.33711C8.08561 6.1501 7.98263 5.89838 7.98263 5.63618C7.98263 5.37397 8.08561 5.12225 8.2694 4.93524C8.45319 4.74823 8.70308 4.64088 8.96525 4.63633L18.8647 4.63633C18.9961 4.63622 19.1261 4.662 19.2475 4.71221C19.3689 4.76242 19.4791 4.83606 19.572 4.92893C19.6649 5.02179 19.7385 5.13206 19.7887 5.25342C19.8389 5.37478 19.8647 5.50484 19.8646 5.63618L19.8646 15.5357C19.86 15.7978 19.7527 16.0477 19.5657 16.2315C19.3787 16.4153 19.127 16.5183 18.8647 16.5183C18.6025 16.5183 18.3508 16.4153 18.1638 16.2315C17.9768 16.0477 17.8695 15.7978 17.8649 15.5357L17.8649 8.05024L6.84393 19.0712C6.65639 19.2587 6.40204 19.3641 6.13682 19.3641C5.87161 19.3641 5.61725 19.2587 5.42972 19.0712C5.24218 18.8837 5.13682 18.6293 5.13682 18.3641C5.13682 18.0989 5.24218 17.8445 5.42972 17.657L16.4507 6.63602Z" fill="#AD7955"/>
</g>
<defs>
<clipPath id="clip0_1343_2198">
<rect width="24" height="24" fill="white" transform="translate(0.5)"/>
</clipPath>
</defs>
</svg>
