<svg width="120" height="120" viewBox="0 0 120 120" fill="none" xmlns="http://www.w3.org/2000/svg">
<circle cx="60" cy="60" r="60" fill="#653012"/>
<path d="M78.1991 55.9539C77.8536 55.9584 77.5235 56.0977 77.2791 56.3421C77.0348 56.5864 76.8955 56.9165 76.891 57.2621V67.7275L69.6 59.3901C69.1368 58.8969 68.5775 58.5039 67.9565 58.2352C67.3355 57.9665 66.6661 57.8279 65.9895 57.8279C65.3129 57.8279 64.6434 57.9665 64.0225 58.2352C63.4015 58.5039 62.8421 58.8969 62.3789 59.3901L57.3729 65.1112L55.7333 63.1227C55.2815 62.5808 54.7161 62.1447 54.0771 61.8455C53.4381 61.5463 52.7411 61.3912 52.0356 61.3912C51.33 61.3912 50.633 61.5463 49.994 61.8455C49.355 62.1447 48.7896 62.5808 48.3378 63.1227L44.6225 67.6054V50.2851C44.6271 48.7831 45.2259 47.3439 46.288 46.2818C47.3501 45.2197 48.7893 44.621 50.2913 44.6164H64.2452C64.5922 44.6164 64.9249 44.4785 65.1703 44.2332C65.4156 43.9879 65.5534 43.6551 65.5534 43.3082C65.5534 42.9612 65.4156 42.6285 65.1703 42.3832C64.9249 42.1378 64.5922 42 64.2452 42H50.2913C48.094 42 45.9866 42.8729 44.4328 44.4267C42.8791 45.9804 42.0062 48.0878 42.0062 50.2851V71.216C41.9979 71.2445 41.9979 71.2747 42.0062 71.3032C42.0291 73.4854 42.9122 75.5704 44.4635 77.1054C46.0147 78.6404 48.109 79.5013 50.2913 79.5011H71.2222C73.3955 79.4968 75.4801 78.6387 77.0267 77.1117C78.5732 75.5847 79.4579 73.5112 79.4899 71.3381V57.2621C79.4855 56.9195 79.3486 56.5919 79.108 56.348C78.8674 56.1041 78.5416 55.9629 78.1991 55.9539ZM71.2222 76.8848H50.2913C48.8665 76.8802 47.4956 76.3393 46.4516 75.3696C45.4076 74.4 44.767 73.0727 44.6574 71.6521L50.2913 64.7972C50.5023 64.5621 50.7605 64.3741 51.049 64.2454C51.3375 64.1166 51.6499 64.0501 51.9658 64.0501C52.2817 64.0501 52.5941 64.1166 52.8826 64.2454C53.1711 64.3741 53.4292 64.5621 53.6403 64.7972L56.2741 67.9717C56.3948 68.1186 56.5466 68.237 56.7185 68.3184C56.8904 68.3998 57.0781 68.4423 57.2683 68.4427C57.6449 68.4219 57.9999 68.26 58.2625 67.9892L64.2627 61.1169C64.4761 60.892 64.7331 60.713 65.018 60.5906C65.3029 60.4683 65.6097 60.4052 65.9197 60.4052C66.2297 60.4052 66.5365 60.4683 66.8214 60.5906C67.1063 60.713 67.3633 60.892 67.5767 61.1169L76.7689 71.5823C76.6813 73.002 76.0616 74.3364 75.0334 75.3192C74.0053 76.3021 72.6443 76.8611 71.2222 76.8848Z" fill="#AD7955"/>
<path fill-rule="evenodd" clip-rule="evenodd" d="M78.2096 55.5541C78.6555 55.5658 79.0795 55.7497 79.3927 56.0672C79.706 56.3847 79.8841 56.8111 79.8898 57.2571L79.8899 57.2622L79.8899 71.3441C79.8563 73.6221 78.9289 75.7957 77.3077 77.3964C75.6865 78.9971 73.5012 79.8967 71.223 79.9012H50.2913C48.0036 79.9014 45.8083 78.9989 44.1821 77.3898C42.565 75.7897 41.6406 73.6194 41.6067 71.3458C41.5979 71.2898 41.5978 71.2329 41.6062 71.177V50.2852C41.6062 47.9818 42.5212 45.7727 44.15 44.1439C45.7788 42.5151 47.9878 41.6001 50.2913 41.6001H64.2452C64.6982 41.6001 65.1327 41.7801 65.4531 42.1004C65.7734 42.4208 65.9534 42.8552 65.9534 43.3083C65.9534 43.7613 65.7734 44.1958 65.4531 44.5161C65.1327 44.8365 64.6982 45.0165 64.2452 45.0165H50.2919C48.8957 45.0209 47.558 45.5775 46.5708 46.5647C45.5835 47.552 45.027 48.8897 45.0225 50.2858V66.4961L48.0298 62.8676C48.5191 62.2806 49.1322 61.8074 49.8243 61.4833C50.5164 61.1592 51.2713 60.9913 52.0355 60.9913C52.7998 60.9913 53.5546 61.1592 54.2467 61.4833C54.9388 61.8074 55.5512 62.2797 56.0406 62.8667L56.0419 62.8684L57.382 64.4935L62.0871 59.1161C62.5878 58.5832 63.1925 58.1586 63.8636 57.8682C64.5347 57.5778 65.2582 57.428 65.9894 57.428C66.7207 57.428 67.4442 57.5778 68.1153 57.8682C68.7864 58.1586 69.3909 58.5833 69.8916 59.1163L69.9013 59.1267L76.4909 66.6626V57.257C76.4968 56.8071 76.6782 56.3774 76.9963 56.0593C77.3143 55.7412 77.7441 55.5599 78.1939 55.554L78.2096 55.5541ZM76.8909 67.7276L69.6 59.3902C69.1368 58.897 68.5774 58.504 67.9565 58.2353C67.3355 57.9666 66.666 57.828 65.9894 57.828C65.3128 57.828 64.6434 57.9666 64.0224 58.2353C63.4015 58.504 62.8421 58.897 62.3789 59.3902L57.3729 65.1113L55.7333 63.1228C55.2815 62.5809 54.7161 62.1448 54.0771 61.8456C53.4381 61.5464 52.7411 61.3913 52.0355 61.3913C51.3299 61.3913 50.633 61.5464 49.994 61.8456C49.355 62.1448 48.7895 62.5809 48.3377 63.1228L44.6225 67.6055V50.2852C44.6271 48.7832 45.2258 47.344 46.2879 46.2819C47.35 45.2198 48.7893 44.6211 50.2913 44.6165H64.2452C64.5922 44.6165 64.9249 44.4786 65.1702 44.2333C65.4156 43.988 65.5534 43.6552 65.5534 43.3083C65.5534 42.9613 65.4156 42.6286 65.1702 42.3833C64.9249 42.1379 64.5922 42.0001 64.2452 42.0001H50.2913C48.0939 42.0001 45.9866 42.873 44.4328 44.4268C42.879 45.9805 42.0062 48.0879 42.0062 50.2852V71.2161C41.9979 71.2446 41.9979 71.2748 42.0062 71.3033C42.0291 73.4855 42.9122 75.5705 44.4634 77.1055C46.0147 78.6405 48.109 79.5014 50.2913 79.5012H71.2222C73.3955 79.4969 75.4801 78.6388 77.0267 77.1118C78.5732 75.5848 79.4578 73.5113 79.4899 71.3382V57.2622C79.4855 56.9196 79.3486 56.592 79.108 56.3481C78.8673 56.1042 78.5416 55.963 78.1991 55.954C77.8536 55.9585 77.5235 56.0978 77.2791 56.3422C77.0347 56.5865 76.8955 56.9166 76.8909 57.2622V67.7276ZM57.2682 68.4428C57.0781 68.4424 56.8903 68.3999 56.7185 68.3185C56.5466 68.2371 56.3948 68.1187 56.274 67.9718L53.6402 64.7973C53.4292 64.5622 53.171 64.3742 52.8825 64.2455C52.594 64.1167 52.2817 64.0502 51.9658 64.0502C51.6498 64.0502 51.3375 64.1167 51.049 64.2455C50.7605 64.3742 50.5023 64.5622 50.2913 64.7973L44.6574 71.6522C44.767 73.0728 45.4076 74.4001 46.4516 75.3697C47.4956 76.3394 48.8664 76.8803 50.2913 76.8849H71.2222C72.6443 76.8612 74.0053 76.3022 75.0334 75.3193C76.0615 74.3365 76.6812 73.002 76.7688 71.5824L67.5767 61.117C67.3632 60.8921 67.1062 60.7131 66.8214 60.5907C66.5365 60.4684 66.2297 60.4053 65.9197 60.4053C65.6096 60.4053 65.3029 60.4684 65.018 60.5907C64.7331 60.7131 64.4761 60.8921 64.2626 61.117L58.2625 67.9893C57.9999 68.2601 57.6449 68.422 57.2682 68.4428ZM64.5582 61.3866L58.55 68.2681C58.2174 68.6111 57.7674 68.8158 57.2903 68.8422L57.2674 68.8434C57.0183 68.8429 56.7724 68.7867 56.5472 68.68C56.3225 68.5735 56.124 68.4188 55.9659 68.2268C55.9656 68.2265 55.9661 68.2271 55.9659 68.2268L53.3376 65.059C53.165 64.8682 52.9545 64.7156 52.7196 64.6108C52.4824 64.5049 52.2255 64.4502 51.9658 64.4502C51.706 64.4502 51.4492 64.5049 51.212 64.6108C50.9773 64.7155 50.767 64.8679 50.5945 65.0583L45.0708 71.7792C45.2062 73.0398 45.7922 74.2114 46.7238 75.0766C47.6941 75.9779 48.9683 76.4807 50.2926 76.4849H71.2187C72.539 76.4621 73.8024 75.9428 74.757 75.0302C75.6732 74.1544 76.2403 72.9781 76.3571 71.7197L67.2815 61.387C67.1064 61.2041 66.8963 61.0582 66.6635 60.9583C66.4285 60.8574 66.1754 60.8053 65.9197 60.8053C65.6639 60.8053 65.4108 60.8574 65.1758 60.9583C64.9433 61.0582 64.7332 61.2038 64.5582 61.3866Z" fill="#AD7955"/>
<path d="M47.2391 52.0294C47.2391 52.9781 47.5204 53.9054 48.0475 54.6943C48.5745 55.4831 49.3237 56.0979 50.2001 56.4609C51.0766 56.824 52.0411 56.9189 52.9715 56.7339C53.902 56.5488 54.7567 56.092 55.4275 55.4211C56.0983 54.7503 56.5551 53.8956 56.7402 52.9652C56.9253 52.0347 56.8303 51.0702 56.4673 50.1938C56.1042 49.3173 55.4894 48.5682 54.7006 48.0411C53.9118 47.514 52.9844 47.2327 52.0357 47.2327C50.7636 47.2327 49.5435 47.7381 48.644 48.6376C47.7444 49.5372 47.2391 50.7572 47.2391 52.0294ZM54.216 52.0294C54.216 52.4606 54.0882 52.8821 53.8486 53.2407C53.609 53.5992 53.2685 53.8787 52.8701 54.0437C52.4717 54.2087 52.0333 54.2519 51.6104 54.1678C51.1874 54.0837 50.7989 53.876 50.494 53.5711C50.1891 53.2662 49.9815 52.8777 49.8973 52.4547C49.8132 52.0318 49.8564 51.5934 50.0214 51.195C50.1864 50.7966 50.4659 50.4561 50.8244 50.2165C51.183 49.9769 51.6045 49.8491 52.0357 49.8491C52.614 49.8491 53.1686 50.0788 53.5774 50.4877C53.9863 50.8966 54.216 51.4511 54.216 52.0294ZM67.7339 49.8491H71.6584V53.7736C71.6584 54.1206 71.7963 54.4533 72.0416 54.6986C72.2869 54.944 72.6197 55.0818 72.9666 55.0818C73.3136 55.0818 73.6463 54.944 73.8916 54.6986C74.137 54.4533 74.2748 54.1206 74.2748 53.7736V49.8491H78.1993C78.5463 49.8491 78.879 49.7113 79.1243 49.4659C79.3697 49.2206 79.5075 48.8878 79.5075 48.5409C79.5075 48.1939 79.3697 47.8612 79.1243 47.6159C78.879 47.3705 78.5463 47.2327 78.1993 47.2327H74.2748V43.3082C74.2748 42.9612 74.137 42.6285 73.8916 42.3832C73.6463 42.1378 73.3136 42 72.9666 42C72.6197 42 72.2869 42.1378 72.0416 42.3832C71.7963 42.6285 71.6584 42.9612 71.6584 43.3082V47.2327H67.7339C67.3869 47.2327 67.0542 47.3705 66.8089 47.6159C66.5635 47.8612 66.4257 48.1939 66.4257 48.5409C66.4257 48.8878 66.5635 49.2206 66.8089 49.4659C67.0542 49.7113 67.3869 49.8491 67.7339 49.8491Z" fill="#AD7955"/>
<path fill-rule="evenodd" clip-rule="evenodd" d="M47.7149 54.9166C47.1439 54.062 46.8391 53.0573 46.8391 52.0295C46.8391 50.6512 47.3866 49.3294 48.3612 48.3549C49.3357 47.3803 50.6575 46.8328 52.0358 46.8328C53.0636 46.8328 54.0683 47.1376 54.9229 47.7086C55.7775 48.2796 56.4435 49.0912 56.8369 50.0408C57.2302 50.9904 57.3331 52.0352 57.1326 53.0433C56.9321 54.0513 56.4371 54.9773 55.7104 55.7041C54.9836 56.4308 54.0576 56.9258 53.0496 57.1263C52.0415 57.3268 50.9967 57.2239 50.0471 56.8306C49.0975 56.4372 48.2859 55.7712 47.7149 54.9166ZM53.516 53.0186C53.7117 52.7258 53.8161 52.3816 53.8161 52.0295C53.8161 51.5573 53.6285 51.1045 53.2946 50.7706C52.9608 50.4367 52.5079 50.2492 52.0358 50.2492C51.6837 50.2492 51.3395 50.3536 51.0467 50.5492C50.7539 50.7448 50.5257 51.0229 50.391 51.3482C50.2562 51.6735 50.221 52.0314 50.2897 52.3768C50.3584 52.7221 50.5279 53.0394 50.7769 53.2883C51.0259 53.5373 51.3431 53.7069 51.6885 53.7756C52.0338 53.8443 52.3918 53.809 52.7171 53.6743C53.0424 53.5395 53.3204 53.3113 53.516 53.0186ZM71.2585 50.2492H67.7339C67.2809 50.2492 66.8464 50.0692 66.5261 49.7489C66.2057 49.4285 66.0257 48.994 66.0257 48.541C66.0257 48.088 66.2057 47.6535 66.5261 47.3331C66.8464 47.0128 67.2809 46.8328 67.7339 46.8328H71.2585V43.3083C71.2585 42.8552 71.4384 42.4208 71.7588 42.1004C72.0791 41.7801 72.5136 41.6001 72.9666 41.6001C73.4197 41.6001 73.8542 41.7801 74.1745 42.1004C74.4949 42.4208 74.6748 42.8552 74.6748 43.3083V46.8328H78.1994C78.6524 46.8328 79.0869 47.0128 79.4072 47.3331C79.7276 47.6535 79.9075 48.088 79.9075 48.541C79.9075 48.994 79.7276 49.4285 79.4072 49.7489C79.0869 50.0692 78.6524 50.2492 78.1994 50.2492H74.6748V53.7737C74.6748 54.2267 74.4949 54.6612 74.1745 54.9816C73.8542 55.3019 73.4197 55.4819 72.9666 55.4819C72.5136 55.4819 72.0791 55.3019 71.7588 54.9816C71.4384 54.6612 71.2585 54.2267 71.2585 53.7737V50.2492ZM48.0475 54.6944C47.5204 53.9055 47.2391 52.9782 47.2391 52.0295C47.2391 50.7573 47.7445 49.5373 48.644 48.6377C49.5436 47.7382 50.7636 47.2328 52.0358 47.2328C52.9845 47.2328 53.9118 47.5141 54.7007 48.0412C55.4895 48.5683 56.1043 49.3174 56.4673 50.1939C56.8304 51.0703 56.9253 52.0348 56.7403 52.9653C56.5552 53.8957 56.0983 54.7504 55.4275 55.4212C54.7567 56.092 53.902 56.5489 52.9716 56.734C52.0411 56.919 51.0766 56.8241 50.2002 56.461C49.3237 56.098 48.5746 55.4832 48.0475 54.6944ZM53.8486 53.2408C54.0882 52.8822 54.2161 52.4607 54.2161 52.0295C54.2161 51.4512 53.9864 50.8967 53.5775 50.4878C53.1686 50.0789 52.614 49.8492 52.0358 49.8492C51.6045 49.8492 51.183 49.977 50.8245 50.2166C50.4659 50.4562 50.1865 50.7967 50.0214 51.1951C49.8564 51.5935 49.8132 52.0319 49.8974 52.4548C49.9815 52.8778 50.1891 53.2663 50.4941 53.5712C50.799 53.8761 51.1875 54.0838 51.6104 54.1679C52.0334 54.252 52.4717 54.2088 52.8701 54.0438C53.2685 53.8788 53.609 53.5993 53.8486 53.2408ZM67.7339 49.8492C67.387 49.8492 67.0542 49.7113 66.8089 49.466C66.5636 49.2207 66.4257 48.8879 66.4257 48.541C66.4257 48.194 66.5636 47.8613 66.8089 47.616C67.0542 47.3706 67.387 47.2328 67.7339 47.2328H71.6585V43.3083C71.6585 42.9613 71.7963 42.6286 72.0416 42.3833C72.287 42.1379 72.6197 42.0001 72.9666 42.0001C73.3136 42.0001 73.6463 42.1379 73.8917 42.3833C74.137 42.6286 74.2748 42.9613 74.2748 43.3083V47.2328H78.1994C78.5463 47.2328 78.8791 47.3706 79.1244 47.616C79.3697 47.8613 79.5075 48.194 79.5075 48.541C79.5075 48.8879 79.3697 49.2207 79.1244 49.466C78.8791 49.7113 78.5463 49.8492 78.1994 49.8492H74.2748V53.7737C74.2748 54.1207 74.137 54.4534 73.8917 54.6987C73.6463 54.9441 73.3136 55.0819 72.9666 55.0819C72.6197 55.0819 72.287 54.9441 72.0416 54.6987C71.7963 54.4534 71.6585 54.1207 71.6585 53.7737V49.8492H67.7339Z" fill="#AD7955"/>
</svg>
