<svg width="44" height="44" viewBox="0 0 44 44" fill="none" xmlns="http://www.w3.org/2000/svg">
<g clip-path="url(#clip0_157_3551)">
<path d="M28.7334 15.9273C28.7193 15.8273 28.6293 15.7719 28.555 15.7658C28.007 15.7257 27.459 15.6859 26.9109 15.6464C26.9109 15.6464 25.8206 14.592 25.7009 14.4753C25.5811 14.3586 25.3473 14.3941 25.2565 14.4201C25.2431 14.424 25.0183 14.4916 24.6463 14.6037C24.2821 13.5827 23.6393 12.6445 22.5085 12.6445C22.4773 12.6445 22.4451 12.6458 22.413 12.6475C22.0914 12.2332 21.693 12.0532 21.3489 12.0532C18.7146 12.0532 17.4561 15.2611 17.0615 16.8912C16.0379 17.2002 15.3107 17.4199 15.2179 17.4483C14.6465 17.6229 14.6284 17.6404 14.5534 18.1649C14.4969 18.5619 13.002 29.8242 13.002 29.8242L24.6512 31.9503L30.9631 30.6202C30.9631 30.6202 28.7473 16.0273 28.7334 15.9273ZM24.0025 14.7977L23.0168 15.0949C23.0171 15.0272 23.0175 14.9606 23.0175 14.8878C23.0175 14.2533 22.9271 13.7424 22.782 13.3374C23.3647 13.4086 23.7527 14.0545 24.0025 14.7977ZM22.0592 13.4632C22.2212 13.8586 22.3265 14.4261 22.3265 15.1919C22.3265 15.231 22.3262 15.2669 22.3258 15.3031C21.6848 15.4965 20.9882 15.7065 20.2901 15.9172C20.682 14.4435 21.4168 13.7317 22.0592 13.4632ZM21.2765 12.7415C21.3902 12.7415 21.5048 12.7791 21.6144 12.8526C20.7701 13.2396 19.8652 14.2143 19.4831 16.1606L17.8739 16.6461C18.3215 15.1615 19.3844 12.7415 21.2765 12.7415Z" fill="#AD7955"/>
<path d="M28.5556 15.7657C28.0076 15.7256 27.4595 15.6858 26.9115 15.6463C26.9115 15.6463 25.8211 14.5919 25.7015 14.4752C25.6567 14.4318 25.5963 14.4095 25.5331 14.3999L24.6523 31.9501L30.9637 30.6201C30.9637 30.6201 28.7479 16.0272 28.734 15.9272C28.7199 15.8272 28.6299 15.7718 28.5556 15.7657Z" fill="#8F5334"/>
<path d="M22.5093 19.1633L21.731 21.4185C21.731 21.4185 21.0491 21.064 20.2132 21.064C18.9878 21.064 18.9262 21.8131 18.9262 22.0019C18.9262 23.0319 21.6824 23.4266 21.6824 25.8392C21.6824 27.7373 20.4465 28.9596 18.7801 28.9596C16.7804 28.9596 15.7578 27.7472 15.7578 27.7472L16.2932 26.024C16.2932 26.024 17.3444 26.9031 18.2314 26.9031C18.811 26.9031 19.0468 26.4585 19.0468 26.1337C19.0468 24.7902 16.7855 24.7303 16.7855 22.5225C16.7855 20.6644 18.1546 18.8662 20.9183 18.8662C21.9832 18.8662 22.5093 19.1633 22.5093 19.1633Z" fill="white"/>
</g>
<rect x="0.5" y="0.5" width="43" height="43" rx="7.5" stroke="#AD7955"/>
<defs>
<clipPath id="clip0_157_3551">
<rect width="18" height="20" fill="white" transform="translate(13 12)"/>
</clipPath>
</defs>
</svg>
