<svg width="44" height="44" viewBox="0 0 44 44" fill="none" xmlns="http://www.w3.org/2000/svg">
<g clip-path="url(#clip0_87_628)">
<path d="M42.822 11.4269C42.4646 11.2177 42.058 11.1074 41.6439 11.1074C41.2297 11.1074 40.8231 11.2177 40.4657 11.4269L33.7562 15.3007V13.8046C33.7545 12.245 33.1341 10.7498 32.0313 9.64703C30.9285 8.54423 29.4333 7.92389 27.8737 7.92212H5.88242C4.32284 7.92389 2.82764 8.54423 1.72485 9.64703C0.622064 10.7498 0.00175139 12.245 0 13.8046L0 30.1953C0.00175139 31.7549 0.622064 33.2501 1.72485 34.3529C2.82764 35.4557 4.32284 36.076 5.88242 36.0778H27.8733C29.433 36.0762 30.9283 35.4559 32.0312 34.3531C33.1341 33.2503 33.7545 31.755 33.7562 30.1953V28.6991L40.4662 32.5731C40.8243 32.7798 41.2306 32.8886 41.6441 32.8885C42.0576 32.8884 42.4639 32.7795 42.822 32.5728C43.1801 32.366 43.4775 32.0686 43.6843 31.7105C43.891 31.3524 43.9999 30.9461 44 30.5326V13.4673C44.0025 13.0533 43.8946 12.646 43.6876 12.2874C43.4806 11.9288 43.1818 11.6318 42.822 11.4269ZM31.0056 30.1957C31.0046 31.0262 30.6743 31.8224 30.087 32.4096C29.4998 32.9969 28.7036 33.3272 27.8731 33.3282H5.88242C5.05187 33.3272 4.25562 32.9968 3.66837 32.4095C3.08112 31.8222 2.75084 31.0259 2.75 30.1953V13.8046C2.75093 12.9741 3.08125 12.1779 3.66849 11.5907C4.25573 11.0034 5.05193 10.6731 5.88242 10.6721H27.8733C28.7039 10.6729 29.5002 11.0032 30.0876 11.5905C30.6749 12.1778 31.0053 12.974 31.0062 13.8046L31.0056 30.1957ZM41.25 29.8505L33.7562 25.5234V18.4765L41.25 14.1494V29.8505Z" fill="white"/>
</g>
<defs>
<clipPath id="clip0_87_628">
<rect width="44" height="44" fill="white"/>
</clipPath>
</defs>
</svg>
