<svg width="120" height="120" viewBox="0 0 120 120" fill="none" xmlns="http://www.w3.org/2000/svg">
<g clip-path="url(#clip0_109_3470)">
<rect width="120" height="120" transform="matrix(-1 0 0 1 120 0)" fill="#222222"/>
<rect width="100" height="59" rx="8" transform="matrix(-1 0 0 1 110 10)" fill="#AD7955"/>
<path d="M72.1328 37.3026C71.9024 37.3056 71.6823 37.3985 71.5194 37.5614C71.3565 37.7243 71.2637 37.9444 71.2606 38.1747V45.1517L66.4 39.5934C66.0912 39.2646 65.7183 39.0026 65.3043 38.8235C64.8903 38.6444 64.444 38.552 63.993 38.552C63.5419 38.552 63.0956 38.6444 62.6816 38.8235C62.2677 39.0026 61.8948 39.2646 61.5859 39.5934L58.2486 43.4074L57.1556 42.0818C56.8544 41.7205 56.4774 41.4298 56.0514 41.2303C55.6254 41.0308 55.1608 40.9274 54.6904 40.9274C54.22 40.9274 53.7553 41.0308 53.3293 41.2303C52.9033 41.4298 52.5264 41.7205 52.2252 42.0818L49.7484 45.0703V33.5234C49.7514 32.5221 50.1506 31.5626 50.8586 30.8545C51.5667 30.1465 52.5262 29.7473 53.5275 29.7442H62.8302C63.0615 29.7442 63.2833 29.6524 63.4468 29.4888C63.6104 29.3252 63.7023 29.1034 63.7023 28.8721C63.7023 28.6408 63.6104 28.419 63.4468 28.2554C63.2833 28.0919 63.0615 28 62.8302 28H53.5275C52.0626 28 50.6577 28.5819 49.6219 29.6178C48.586 30.6536 48.0041 32.0585 48.0041 33.5234V47.4773C47.9986 47.4963 47.9986 47.5165 48.0041 47.5355C48.0194 48.9903 48.6081 50.3803 49.6423 51.4036C50.6765 52.4269 52.0727 53.0008 53.5275 53.0008H67.4815C68.9304 52.9979 70.3201 52.4258 71.3511 51.4078C72.3822 50.3898 72.9719 49.0075 72.9933 47.5587V38.1747C72.9903 37.9463 72.8991 37.7279 72.7387 37.5654C72.5782 37.4028 72.3611 37.3086 72.1328 37.3026ZM67.4815 51.2565H53.5275C52.5776 51.2535 51.6637 50.8929 50.9677 50.2464C50.2717 49.6 49.8447 48.7151 49.7716 47.768L53.5275 43.1981C53.6682 43.0414 53.8403 42.9161 54.0327 42.8302C54.225 42.7444 54.4332 42.7001 54.6439 42.7001C54.8545 42.7001 55.0627 42.7444 55.255 42.8302C55.4474 42.9161 55.6195 43.0414 55.7602 43.1981L57.516 45.3145C57.5966 45.4124 57.6977 45.4913 57.8123 45.5456C57.9269 45.5999 58.0521 45.6282 58.1788 45.6284C58.4299 45.6146 58.6666 45.5066 58.8417 45.3261L62.8418 40.7446C62.9841 40.5947 63.1554 40.4753 63.3453 40.3938C63.5353 40.3122 63.7398 40.2701 63.9465 40.2701C64.1532 40.2701 64.3577 40.3122 64.5476 40.3938C64.7375 40.4753 64.9088 40.5947 65.0512 40.7446L71.1792 47.7215C71.1208 48.668 70.7077 49.5576 70.0223 50.2128C69.3369 50.8681 68.4296 51.2408 67.4815 51.2565Z" fill="#653012"/>
<path fill-rule="evenodd" clip-rule="evenodd" d="M72.1398 37.0361C72.437 37.0439 72.7197 37.1665 72.9285 37.3781C73.1373 37.5898 73.2561 37.8741 73.2599 38.1714L73.2599 38.1748L73.2599 47.5627C73.2375 49.0814 72.6193 50.5305 71.5385 51.5976C70.4577 52.6647 69.0008 53.2645 67.482 53.2675H53.5276C52.0024 53.2676 50.5389 52.6659 49.4547 51.5932C48.3767 50.5265 47.7604 49.0796 47.7378 47.5638C47.732 47.5266 47.7319 47.4886 47.7375 47.4513V33.5235C47.7375 31.9879 48.3475 30.5151 49.4333 29.4293C50.5192 28.3434 51.9919 27.7334 53.5275 27.7334H62.8302C63.1322 27.7334 63.4218 27.8534 63.6354 28.0669C63.849 28.2805 63.9689 28.5702 63.9689 28.8722C63.9689 29.1742 63.849 29.4639 63.6354 29.6774C63.4218 29.891 63.1322 30.011 62.8302 30.011H53.528C52.5972 30.0139 51.7054 30.385 51.0472 31.0432C50.389 31.7013 50.018 32.5931 50.015 33.5239V44.3307L52.0199 41.9117C52.3461 41.5204 52.7548 41.205 53.2162 40.9889C53.6776 40.7728 54.1809 40.6608 54.6904 40.6608C55.1999 40.6608 55.7031 40.7728 56.1645 40.9889C56.6259 41.205 57.0342 41.5198 57.3604 41.9111L57.3613 41.9122L58.2547 42.9957L61.3914 39.4108C61.7252 39.0554 62.1283 38.7724 62.5758 38.5788C63.0232 38.3852 63.5055 38.2853 63.993 38.2853C64.4805 38.2853 64.9628 38.3852 65.4102 38.5788C65.8576 38.7724 66.2606 39.0555 66.5944 39.4109L66.6009 39.4178L70.994 44.4417V38.1713C70.9979 37.8714 71.1188 37.5849 71.3309 37.3729C71.5429 37.1608 71.8294 37.04 72.1293 37.036L72.1398 37.0361ZM71.2606 45.1518L66.4 39.5934C66.0912 39.2647 65.7183 39.0026 65.3043 38.8235C64.8903 38.6444 64.4441 38.552 63.993 38.552C63.5419 38.552 63.0956 38.6444 62.6816 38.8235C62.2677 39.0026 61.8948 39.2647 61.5859 39.5934L58.2486 43.4075L57.1556 42.0819C56.8544 41.7206 56.4774 41.4299 56.0514 41.2304C55.6254 41.0309 55.1608 40.9275 54.6904 40.9275C54.22 40.9275 53.7553 41.0309 53.3293 41.2304C52.9033 41.4299 52.5264 41.7206 52.2252 42.0819L49.7484 45.0704V33.5235C49.7514 32.5221 50.1506 31.5627 50.8586 30.8546C51.5667 30.1465 52.5262 29.7474 53.5275 29.7443H62.8302C63.0615 29.7443 63.2833 29.6524 63.4468 29.4889C63.6104 29.3253 63.7023 29.1035 63.7023 28.8722C63.7023 28.6409 63.6104 28.4191 63.4468 28.2555C63.2833 28.0919 63.0615 28.0001 62.8302 28.0001H53.5275C52.0626 28.0001 50.6577 28.582 49.6219 29.6178C48.5861 30.6537 48.0041 32.0586 48.0041 33.5235V47.4774C47.9986 47.4964 47.9986 47.5166 48.0041 47.5355C48.0194 48.9903 48.6081 50.3804 49.6423 51.4037C50.6765 52.427 52.0727 53.0009 53.5275 53.0008H67.4815C68.9304 52.9979 70.3201 52.4258 71.3511 51.4079C72.3822 50.3899 72.9719 49.0075 72.9933 47.5588V38.1748C72.9903 37.9464 72.8991 37.728 72.7387 37.5654C72.5782 37.4028 72.3611 37.3087 72.1328 37.3027C71.9024 37.3057 71.6823 37.3985 71.5194 37.5614C71.3565 37.7243 71.2637 37.9444 71.2606 38.1748V45.1518ZM58.1789 45.6285C58.0521 45.6282 57.9269 45.6 57.8123 45.5457C57.6977 45.4914 57.5966 45.4125 57.516 45.3145L55.7602 43.1982C55.6195 43.0415 55.4474 42.9161 55.2551 42.8303C55.0627 42.7445 54.8545 42.7001 54.6439 42.7001C54.4333 42.7001 54.225 42.7445 54.0327 42.8303C53.8403 42.9161 53.6682 43.0415 53.5275 43.1982L49.7716 47.7681C49.8447 48.7152 50.2717 49.6 50.9677 50.2465C51.6637 50.8929 52.5777 51.2536 53.5275 51.2566H67.4815C68.4296 51.2408 69.3369 50.8681 70.0223 50.2129C70.7077 49.5576 71.1208 48.668 71.1793 47.7216L65.0512 40.7446C64.9088 40.5948 64.7375 40.4754 64.5476 40.3938C64.3577 40.3123 64.1532 40.2702 63.9465 40.2702C63.7398 40.2702 63.5353 40.3123 63.3453 40.3938C63.1554 40.4754 62.9841 40.5948 62.8418 40.7446L58.8417 45.3262C58.6666 45.5067 58.4299 45.6147 58.1789 45.6285ZM63.0388 40.9244L59.0334 45.5121C58.8116 45.7407 58.5116 45.8772 58.1935 45.8948L58.1783 45.8956C58.0122 45.8953 57.8483 45.8578 57.6982 45.7867C57.5483 45.7157 57.416 45.6125 57.3106 45.4846C57.3104 45.4843 57.3108 45.4848 57.3106 45.4846L55.5584 43.3727C55.4434 43.2455 55.303 43.1437 55.1464 43.0738C54.9883 43.0033 54.817 42.9668 54.6439 42.9668C54.4707 42.9668 54.2995 43.0033 54.1413 43.0738C53.9849 43.1436 53.8447 43.2453 53.7297 43.3722L50.0472 47.8528C50.1375 48.6932 50.5281 49.4743 51.1492 50.0511C51.7961 50.6519 52.6455 50.9871 53.5284 50.9899H67.4791C68.3594 50.9748 69.2016 50.6285 69.838 50.0201C70.4488 49.4363 70.8269 48.6521 70.9048 47.8132L64.8544 40.9247C64.7376 40.8027 64.5975 40.7055 64.4424 40.6389C64.2857 40.5716 64.117 40.5369 63.9465 40.5369C63.776 40.5369 63.6072 40.5716 63.4506 40.6389C63.2955 40.7054 63.1555 40.8026 63.0388 40.9244Z" fill="#653012"/>
<path d="M51.4927 34.6863C51.4927 35.3187 51.6803 35.937 52.0317 36.4628C52.383 36.9887 52.8825 37.3986 53.4668 37.6406C54.0511 37.8826 54.6941 37.946 55.3144 37.8226C55.9347 37.6992 56.5045 37.3946 56.9517 36.9474C57.3989 36.5002 57.7035 35.9304 57.8268 35.3101C57.9502 34.6898 57.8869 34.0468 57.6449 33.4625C57.4028 32.8782 56.993 32.3788 56.4671 32.0274C55.9412 31.676 55.323 31.4885 54.6905 31.4885C53.8424 31.4885 53.029 31.8254 52.4293 32.4251C51.8296 33.0248 51.4927 33.8381 51.4927 34.6863ZM56.144 34.6863C56.144 34.9737 56.0588 35.2548 55.8991 35.4938C55.7394 35.7328 55.5124 35.9191 55.2468 36.0291C54.9812 36.1392 54.6889 36.1679 54.4069 36.1119C54.125 36.0558 53.866 35.9173 53.6627 35.7141C53.4594 35.5108 53.321 35.2518 53.2649 34.9698C53.2088 34.6879 53.2376 34.3956 53.3476 34.13C53.4576 33.8644 53.6439 33.6374 53.883 33.4777C54.122 33.318 54.403 33.2327 54.6905 33.2327C55.076 33.2327 55.4457 33.3859 55.7183 33.6584C55.9909 33.931 56.144 34.3007 56.144 34.6863ZM65.1559 33.2327H67.7723V35.8491C67.7723 36.0804 67.8642 36.3022 68.0277 36.4658C68.1913 36.6293 68.4131 36.7212 68.6444 36.7212C68.8757 36.7212 69.0976 36.6293 69.2611 36.4658C69.4247 36.3022 69.5165 36.0804 69.5165 35.8491V33.2327H72.1329C72.3642 33.2327 72.586 33.1408 72.7496 32.9773C72.9131 32.8137 73.005 32.5919 73.005 32.3606C73.005 32.1293 72.9131 31.9075 72.7496 31.7439C72.586 31.5804 72.3642 31.4885 72.1329 31.4885H69.5165V28.8721C69.5165 28.6408 69.4247 28.419 69.2611 28.2554C69.0976 28.0919 68.8757 28 68.6444 28C68.4131 28 68.1913 28.0919 68.0277 28.2554C67.8642 28.419 67.7723 28.6408 67.7723 28.8721V31.4885H65.1559C64.9246 31.4885 64.7028 31.5804 64.5393 31.7439C64.3757 31.9075 64.2838 32.1293 64.2838 32.3606C64.2838 32.5919 64.3757 32.8137 64.5393 32.9773C64.7028 33.1408 64.9246 33.2327 65.1559 33.2327Z" fill="#653012"/>
<path fill-rule="evenodd" clip-rule="evenodd" d="M51.8099 36.6111C51.4293 36.0413 51.2261 35.3715 51.2261 34.6863C51.2261 33.7675 51.5911 32.8863 52.2408 32.2366C52.8905 31.5869 53.7717 31.2219 54.6905 31.2219C55.3757 31.2219 56.0455 31.4251 56.6153 31.8057C57.185 32.1864 57.629 32.7275 57.8912 33.3605C58.1535 33.9936 58.2221 34.6902 58.0884 35.3622C57.9547 36.0342 57.6248 36.6515 57.1402 37.136C56.6557 37.6206 56.0384 37.9505 55.3664 38.0842C54.6944 38.2179 53.9978 38.1493 53.3647 37.887C52.7317 37.6248 52.1906 37.1808 51.8099 36.6111ZM55.6774 35.3457C55.8078 35.1505 55.8774 34.9211 55.8774 34.6863C55.8774 34.3715 55.7523 34.0697 55.5298 33.8471C55.3072 33.6245 55.0053 33.4994 54.6905 33.4994C54.4558 33.4994 54.2263 33.5691 54.0311 33.6995C53.8359 33.8299 53.6838 34.0152 53.594 34.2321C53.5042 34.449 53.4807 34.6876 53.5265 34.9179C53.5722 35.1481 53.6853 35.3596 53.8513 35.5256C54.0173 35.6915 54.2287 35.8046 54.459 35.8504C54.6892 35.8962 54.9278 35.8727 55.1447 35.7828C55.3616 35.693 55.5469 35.5409 55.6774 35.3457ZM67.5056 33.4994H65.156C64.8539 33.4994 64.5643 33.3795 64.3507 33.1659C64.1371 32.9523 64.0172 32.6627 64.0172 32.3607C64.0172 32.0586 64.1371 31.769 64.3507 31.5554C64.5643 31.3419 64.8539 31.2219 65.156 31.2219H67.5056V28.8722C67.5056 28.5702 67.6256 28.2805 67.8392 28.0669C68.0527 27.8534 68.3424 27.7334 68.6444 27.7334C68.9465 27.7334 69.2361 27.8534 69.4497 28.0669C69.6632 28.2805 69.7832 28.5702 69.7832 28.8722V31.2219H72.1329C72.4349 31.2219 72.7246 31.3419 72.9382 31.5554C73.1517 31.769 73.2717 32.0586 73.2717 32.3607C73.2717 32.6627 73.1517 32.9523 72.9382 33.1659C72.7246 33.3795 72.4349 33.4994 72.1329 33.4994H69.7832V35.8491C69.7832 36.1512 69.6632 36.4408 69.4497 36.6544C69.2361 36.8679 68.9465 36.9879 68.6444 36.9879C68.3424 36.9879 68.0527 36.8679 67.8392 36.6544C67.6256 36.4408 67.5056 36.1512 67.5056 35.8491V33.4994ZM52.0317 36.4629C51.6803 35.937 51.4927 35.3188 51.4927 34.6863C51.4927 33.8382 51.8296 33.0248 52.4293 32.4251C53.029 31.8255 53.8424 31.4885 54.6905 31.4885C55.323 31.4885 55.9412 31.6761 56.4671 32.0275C56.993 32.3788 57.4028 32.8783 57.6449 33.4626C57.8869 34.0469 57.9502 34.6899 57.8268 35.3102C57.7035 35.9305 57.3989 36.5003 56.9517 36.9475C56.5045 37.3947 55.9347 37.6993 55.3144 37.8226C54.6941 37.946 54.0511 37.8827 53.4668 37.6407C52.8825 37.3986 52.383 36.9888 52.0317 36.4629ZM55.8991 35.4939C56.0588 35.2548 56.144 34.9738 56.144 34.6863C56.144 34.3008 55.9909 33.9311 55.7183 33.6585C55.4457 33.3859 55.076 33.2328 54.6905 33.2328C54.403 33.2328 54.122 33.318 53.883 33.4777C53.6439 33.6375 53.4576 33.8645 53.3476 34.1301C53.2376 34.3957 53.2088 34.6879 53.2649 34.9699C53.321 35.2518 53.4594 35.5108 53.6627 35.7141C53.866 35.9174 54.125 36.0558 54.4069 36.1119C54.6889 36.168 54.9812 36.1392 55.2468 36.0292C55.5124 35.9192 55.7394 35.7329 55.8991 35.4939ZM65.156 33.2328C64.9247 33.2328 64.7028 33.1409 64.5393 32.9773C64.3757 32.8138 64.2838 32.592 64.2838 32.3607C64.2838 32.1294 64.3757 31.9075 64.5393 31.744C64.7028 31.5804 64.9247 31.4885 65.156 31.4885H67.7723V28.8722C67.7723 28.6409 67.8642 28.4191 68.0277 28.2555C68.1913 28.0919 68.4131 28.0001 68.6444 28.0001C68.8757 28.0001 69.0976 28.0919 69.2611 28.2555C69.4247 28.4191 69.5165 28.6409 69.5165 28.8722V31.4885H72.1329C72.3642 31.4885 72.586 31.5804 72.7496 31.744C72.9131 31.9075 73.005 32.1294 73.005 32.3607C73.005 32.592 72.9131 32.8138 72.7496 32.9773C72.586 33.1409 72.3642 33.2328 72.1329 33.2328H69.5165V35.8491C69.5165 36.0804 69.4247 36.3023 69.2611 36.4658C69.0976 36.6294 68.8757 36.7213 68.6444 36.7213C68.4131 36.7213 68.1913 36.6294 68.0277 36.4658C67.8642 36.3023 67.7723 36.0804 67.7723 35.8491V33.2328H65.156Z" fill="#653012"/>
<rect x="10" y="79" width="100" height="8" rx="2" fill="#111111"/>
<rect x="10" y="91" width="30" height="19" rx="2" fill="#111111"/>
<rect x="45" y="91" width="30" height="19" rx="2" fill="#111111"/>
<rect x="80" y="91" width="30" height="19" rx="2" fill="#111111"/>
</g>
<defs>
<clipPath id="clip0_109_3470">
<rect width="120" height="120" rx="12.7336" fill="white"/>
</clipPath>
</defs>
</svg>
