<svg width="44" height="44" viewBox="0 0 44 44" fill="none" xmlns="http://www.w3.org/2000/svg">
<g clip-path="url(#clip0_87_635)">
<path d="M43.0613 19.6255C39.323 15.6601 35.5714 12.6627 31.9114 10.7164C28.1701 8.72681 24.416 7.7748 20.755 7.88677C17.2794 7.99316 13.8211 9.05982 10.476 11.0573C7.2007 13.0131 3.94565 15.9176 0.801626 19.6899C0.272085 20.319 -0.0130792 21.1177 -0.00162077 21.9399C0.00983765 22.7621 0.317151 23.5526 0.864017 24.1666C4.33306 28.1 7.86199 31.0992 11.3529 33.0806C14.9087 35.099 18.5248 36.1221 22.1024 36.1221H22.1404C25.705 36.1148 29.299 35.0913 32.8218 33.0799C36.2686 31.1119 39.7427 28.1406 43.1472 24.2486C43.7132 23.6066 44.0182 22.776 44.0023 21.9203C43.9864 21.0647 43.6507 20.246 43.0613 19.6255ZM41.0779 22.4376C34.7422 29.6806 28.3689 33.3594 22.1348 33.3721H22.1025C15.8301 33.3721 9.37784 29.6626 2.92617 22.3473C2.81505 22.2251 2.75246 22.0665 2.7502 21.9014C2.74793 21.7363 2.80615 21.576 2.91388 21.4509C8.74045 14.46 14.7715 10.8211 20.839 10.6355C21.003 10.6305 21.1672 10.628 21.3317 10.628C27.6144 10.628 34.249 14.2874 41.0607 21.5122C41.1787 21.6364 41.2459 21.8003 41.2491 21.9716C41.2523 22.1428 41.1912 22.3091 41.0779 22.4376ZM22.0003 14.1109C20.44 14.1109 18.9147 14.5736 17.6173 15.4404C16.32 16.3073 15.3088 17.5394 14.7117 18.9809C14.1146 20.4225 13.9584 22.0087 14.2628 23.539C14.5672 25.0694 15.3185 26.475 16.4219 27.5784C17.5252 28.6817 18.9309 29.433 20.4612 29.7374C21.9915 30.0418 23.5777 29.8856 25.0193 29.2885C26.4608 28.6914 27.6929 27.6802 28.5598 26.3829C29.4266 25.0855 29.8893 23.5603 29.8893 21.9999C29.887 19.9083 29.0552 17.903 27.5762 16.424C26.0972 14.9451 24.0919 14.1132 22.0003 14.1109ZM22.0003 27.139C20.9839 27.139 19.9903 26.8376 19.1451 26.2729C18.3 25.7082 17.6413 24.9056 17.2524 23.9666C16.8634 23.0275 16.7617 21.9942 16.9599 20.9974C17.1582 20.0005 17.6477 19.0848 18.3664 18.3661C19.0851 17.6474 20.0008 17.1579 20.9977 16.9596C21.9946 16.7613 23.0279 16.8631 23.9669 17.2521C24.9059 17.641 25.7085 18.2997 26.2732 19.1448C26.8379 19.9899 27.1393 20.9835 27.1393 21.9999C27.1378 23.3624 26.5959 24.6687 25.6324 25.6321C24.669 26.5956 23.3628 27.1375 22.0003 27.139Z" fill="white"/>
</g>
<defs>
<clipPath id="clip0_87_635">
<rect width="44" height="44" fill="white"/>
</clipPath>
</defs>
</svg>
