<svg width="18" height="19" viewBox="0 0 18 19" fill="none" xmlns="http://www.w3.org/2000/svg">
<path d="M15.6715 6.0371H12.4527L12.7219 4.61377C12.8573 3.90078 12.8236 3.16348 12.6237 2.4676C12.4238 1.77172 12.0641 1.13889 11.5765 0.625515C11.3497 0.386181 11.0723 0.20717 10.7672 0.103223C10.462 -0.000723663 10.1379 -0.0266339 9.82146 0.0276258C9.505 0.0818856 9.20528 0.214763 8.94696 0.415318C8.68864 0.615873 8.47911 0.878369 8.33564 1.18119L6.63136 4.78661C6.35053 5.36559 5.96434 5.88039 5.49491 6.30154C5.41926 6.21793 5.32834 6.15138 5.22765 6.10593C5.12696 6.06048 5.01859 6.03706 4.90909 6.0371H0.818182C0.601187 6.0371 0.393079 6.12814 0.23964 6.29021C0.086201 6.45228 0 6.67209 0 6.90129V18.1358C0 18.365 0.086201 18.5848 0.23964 18.7469C0.393079 18.909 0.601187 19 0.818182 19H4.90909C5.0732 18.9992 5.23328 18.9462 5.36854 18.8481C5.50379 18.7499 5.60797 18.611 5.66755 18.4495L7.10509 18.9551C7.18843 18.9846 7.27573 18.9998 7.36364 19H13.4002C13.9392 18.9983 14.4704 18.8648 14.9524 18.6099C15.4343 18.355 15.8538 17.9857 16.1779 17.5309C17.3567 15.864 17.9957 13.8403 18 11.7598V8.49659C17.9996 7.84443 17.7541 7.21912 17.3175 6.75797C16.8809 6.29682 16.2889 6.03755 15.6715 6.0371ZM4.09091 17.2716H1.63636V7.76548H4.09091V17.2716ZM16.3636 11.7598C16.3607 13.467 15.8368 15.1277 14.8696 16.4956C14.6978 16.7367 14.4754 16.9324 14.2198 17.0673C13.9643 17.2023 13.6826 17.2728 13.3969 17.2733H7.49618L5.72727 16.6494V8.24857C6.7401 7.6033 7.56194 6.67178 8.1 5.5592L9.80182 1.95378C9.82935 1.89591 9.86948 1.84577 9.91892 1.80746C9.96836 1.76915 10.0257 1.74376 10.0862 1.73339C10.1467 1.72302 10.2087 1.72795 10.2671 1.74778C10.3255 1.76761 10.3786 1.80178 10.422 1.84748C10.7186 2.15986 10.9374 2.54497 11.0587 2.96841C11.1801 3.39186 11.2003 3.84045 11.1175 4.27414L10.6527 6.72845C10.6285 6.85402 10.6309 6.98373 10.66 7.10816C10.689 7.2326 10.7439 7.34866 10.8207 7.44792C10.8974 7.54719 10.9941 7.62718 11.1037 7.6821C11.2134 7.73703 11.3332 7.76551 11.4545 7.76548H15.6715C15.855 7.76548 16.0311 7.84251 16.1609 7.97962C16.2907 8.11673 16.3636 8.30269 16.3636 8.49659V11.7598Z" fill="white"/>
</svg>
