<svg width="321" height="32" viewBox="0 0 321 32" fill="none" xmlns="http://www.w3.org/2000/svg">
<path fill-rule="evenodd" clip-rule="evenodd" d="M98.1729 3.5C97.2257 3.5 96.3173 3.87626 95.6476 4.54602C94.9778 5.21577 94.6016 6.12416 94.6016 7.07133C94.6016 8.21342 95.0532 9.38952 95.8404 10.5628C96.6257 11.7333 97.6964 12.8272 98.8071 13.7777C99.9128 14.724 101.025 15.4997 101.863 16.0398C102.162 16.2322 102.424 16.3936 102.637 16.5213C102.85 16.3936 103.112 16.2322 103.411 16.0398C104.249 15.4997 105.361 14.724 106.467 13.7777C107.578 12.8272 108.648 11.7333 109.434 10.5628C110.221 9.38952 110.673 8.21342 110.673 7.07133C110.673 6.12416 110.296 5.21577 109.627 4.54602C108.957 3.87626 108.048 3.5 107.101 3.5C105.546 3.5 104.304 4.3335 103.794 5.58063C103.602 6.05028 103.145 6.35709 102.637 6.35709C102.13 6.35709 101.673 6.05028 101.48 5.58063C100.97 4.3335 99.7284 3.5 98.1729 3.5ZM102.637 17.964C102.044 19.0646 102.044 19.0644 102.044 19.0642L102.041 19.0625L102.033 19.0586L102.009 19.0453C101.989 19.0341 101.96 19.018 101.922 18.9972C101.848 18.9556 101.742 18.8953 101.608 18.8171C101.34 18.6609 100.962 18.433 100.509 18.1415C99.6067 17.56 98.3972 16.7174 97.1816 15.6771C95.9709 14.641 94.7201 13.3802 93.7644 11.9558C92.8107 10.5343 92.1016 8.87562 92.1016 7.07133C92.1016 5.46111 92.7412 3.91685 93.8798 2.77825C95.0184 1.63966 96.5627 1 98.1729 1C99.9069 1 101.512 1.66809 102.637 2.84654C103.763 1.66809 105.367 1 107.101 1C108.712 1 110.256 1.63966 111.394 2.77825C112.533 3.91685 113.173 5.46111 113.173 7.07133C113.173 8.87562 112.464 10.5343 111.51 11.9558C110.554 13.3802 109.303 14.641 108.093 15.6771C106.877 16.7174 105.667 17.56 104.765 18.1415C104.312 18.433 103.934 18.6609 103.666 18.8171C103.532 18.8953 103.426 18.9556 103.352 18.9972C103.315 19.018 103.286 19.0341 103.265 19.0453L103.241 19.0586L103.234 19.0625L103.231 19.0638C103.231 19.0639 103.23 19.0646 102.637 17.964ZM102.637 17.964L103.23 19.0646C102.86 19.2638 102.414 19.2634 102.044 19.0642L102.637 17.964Z" fill="#AD7955"/>
<path d="M127.95 24.352C127.393 24.352 126.865 24.2713 126.366 24.11C125.867 23.9633 125.413 23.736 125.002 23.428C124.606 23.1053 124.269 22.702 123.99 22.218C123.711 21.734 123.506 21.1547 123.374 20.48H126.432C126.505 20.92 126.681 21.2427 126.96 21.448C127.239 21.6533 127.569 21.756 127.95 21.756C128.302 21.756 128.603 21.668 128.852 21.492C129.101 21.316 129.226 21.074 129.226 20.766C129.226 20.3847 129.079 20.1133 128.786 19.952C128.507 19.776 128.06 19.622 127.444 19.49C126.931 19.3727 126.439 19.2187 125.97 19.028C125.515 18.8373 125.112 18.5953 124.76 18.302C124.408 18.0087 124.122 17.6567 123.902 17.246C123.697 16.8207 123.594 16.322 123.594 15.75C123.594 15.2367 123.689 14.7747 123.88 14.364C124.085 13.9387 124.364 13.572 124.716 13.264C125.068 12.956 125.486 12.7213 125.97 12.56C126.454 12.384 126.989 12.296 127.576 12.296C128.089 12.296 128.581 12.3693 129.05 12.516C129.534 12.648 129.967 12.868 130.348 13.176C130.729 13.4693 131.059 13.8507 131.338 14.32C131.617 14.7747 131.822 15.3247 131.954 15.97H128.94C128.852 15.5887 128.691 15.31 128.456 15.134C128.236 14.9433 127.965 14.848 127.642 14.848C127.349 14.848 127.092 14.9287 126.872 15.09C126.652 15.2367 126.542 15.4567 126.542 15.75C126.542 16.0873 126.689 16.344 126.982 16.52C127.29 16.6813 127.789 16.8427 128.478 17.004C128.977 17.1213 129.446 17.2753 129.886 17.466C130.341 17.642 130.737 17.8767 131.074 18.17C131.411 18.4633 131.675 18.8153 131.866 19.226C132.071 19.6367 132.174 20.128 132.174 20.7C132.174 21.2867 132.057 21.8073 131.822 22.262C131.602 22.7167 131.301 23.098 130.92 23.406C130.539 23.714 130.091 23.9487 129.578 24.11C129.065 24.2713 128.522 24.352 127.95 24.352ZM134.05 12.648H137.46V14.188C137.885 13.6013 138.399 13.1393 139 12.802C139.616 12.4647 140.283 12.296 141.002 12.296C141.735 12.296 142.425 12.45 143.07 12.758C143.715 13.0513 144.28 13.4693 144.764 14.012C145.263 14.5547 145.651 15.1927 145.93 15.926C146.223 16.6447 146.37 17.4367 146.37 18.302C146.37 19.1673 146.223 19.974 145.93 20.722C145.651 21.4553 145.263 22.0933 144.764 22.636C144.28 23.164 143.715 23.582 143.07 23.89C142.425 24.198 141.735 24.352 141.002 24.352C140.283 24.352 139.616 24.1833 139 23.846C138.399 23.494 137.885 23.0247 137.46 22.438V27.74H134.05V12.648ZM137.482 18.302C137.482 18.698 137.555 19.0647 137.702 19.402C137.849 19.7393 138.047 20.04 138.296 20.304C138.545 20.5533 138.831 20.7513 139.154 20.898C139.491 21.0447 139.851 21.118 140.232 21.118C140.613 21.118 140.973 21.052 141.31 20.92C141.647 20.7733 141.941 20.5753 142.19 20.326C142.439 20.062 142.637 19.7613 142.784 19.424C142.931 19.0867 143.004 18.72 143.004 18.324C143.004 17.9427 142.931 17.5833 142.784 17.246C142.637 16.9087 142.439 16.6153 142.19 16.366C141.941 16.1167 141.647 15.9187 141.31 15.772C140.973 15.6253 140.613 15.552 140.232 15.552C139.851 15.552 139.491 15.6253 139.154 15.772C138.831 15.9187 138.545 16.1167 138.296 16.366C138.047 16.6153 137.849 16.9087 137.702 17.246C137.555 17.5687 137.482 17.9207 137.482 18.302ZM153.47 24.352C152.619 24.352 151.82 24.1907 151.072 23.868C150.324 23.5453 149.664 23.1127 149.092 22.57C148.534 22.0127 148.094 21.3673 147.772 20.634C147.449 19.9007 147.288 19.116 147.288 18.28C147.288 17.4587 147.449 16.6887 147.772 15.97C148.094 15.2367 148.534 14.5987 149.092 14.056C149.664 13.5133 150.324 13.088 151.072 12.78C151.82 12.4573 152.619 12.296 153.47 12.296C154.32 12.296 155.112 12.4573 155.846 12.78C156.594 13.088 157.246 13.5133 157.804 14.056C158.361 14.5987 158.801 15.2367 159.124 15.97C159.446 16.6887 159.608 17.4587 159.608 18.28C159.608 19.116 159.446 19.908 159.124 20.656C158.801 21.3893 158.361 22.0347 157.804 22.592C157.246 23.1347 156.594 23.5673 155.846 23.89C155.112 24.198 154.32 24.352 153.47 24.352ZM150.742 18.302C150.742 18.6833 150.808 19.0427 150.94 19.38C151.086 19.7173 151.284 20.0107 151.534 20.26C151.783 20.5093 152.069 20.7073 152.392 20.854C152.729 21.0007 153.081 21.074 153.448 21.074C153.829 21.074 154.181 21.008 154.504 20.876C154.841 20.7293 155.134 20.5313 155.384 20.282C155.633 20.0327 155.824 19.7393 155.956 19.402C156.102 19.0647 156.176 18.698 156.176 18.302C156.176 17.9207 156.102 17.5687 155.956 17.246C155.809 16.9233 155.611 16.6373 155.362 16.388C155.127 16.1387 154.841 15.948 154.504 15.816C154.181 15.6693 153.829 15.596 153.448 15.596C153.081 15.596 152.729 15.6693 152.392 15.816C152.069 15.948 151.783 16.1387 151.534 16.388C151.284 16.6373 151.086 16.9233 150.94 17.246C150.808 17.5687 150.742 17.9207 150.742 18.302ZM164.747 12.648V14.694C165.025 13.99 165.458 13.4327 166.045 13.022C166.646 12.6113 167.416 12.4207 168.355 12.45V15.97C167.108 15.8527 166.221 16.058 165.693 16.586C165.165 17.114 164.901 17.95 164.901 19.094V24H161.469V12.648H164.747ZM177.979 24.044C176.571 24.264 175.405 24.3007 174.481 24.154C173.571 24.0073 172.845 23.6993 172.303 23.23C171.775 22.7607 171.401 22.152 171.181 21.404C170.975 20.6413 170.873 19.7687 170.873 18.786V15.574H169.135V12.648H170.873V9.172H174.217V12.648H177.781V15.574H174.217V18.368C174.217 18.852 174.246 19.292 174.305 19.688C174.363 20.084 174.517 20.4067 174.767 20.656C175.031 20.9053 175.412 21.0667 175.911 21.14C176.409 21.1987 177.099 21.1547 177.979 21.008V24.044ZM183.245 7.94V14.232C183.626 13.616 184.11 13.1467 184.697 12.824C185.298 12.4867 185.966 12.318 186.699 12.318C187.227 12.318 187.733 12.406 188.217 12.582C188.701 12.758 189.126 13.0513 189.493 13.462C189.86 13.8727 190.153 14.4007 190.373 15.046C190.593 15.6913 190.703 16.4907 190.703 17.444V24H187.271V17.752C187.271 16.872 187.11 16.2487 186.787 15.882C186.464 15.5007 186.017 15.31 185.445 15.31C184.902 15.31 184.418 15.4933 183.993 15.86C183.568 16.212 183.318 16.784 183.245 17.576V24H179.813V7.94H183.245ZM200.392 24V22.658C200.026 23.2153 199.556 23.6407 198.984 23.934C198.427 24.2127 197.796 24.352 197.092 24.352C196.535 24.352 196.014 24.2567 195.53 24.066C195.046 23.89 194.621 23.604 194.254 23.208C193.888 22.7973 193.602 22.2767 193.396 21.646C193.191 21.0153 193.088 20.2527 193.088 19.358V12.648H196.498V18.852C196.498 20.4947 197.092 21.316 198.28 21.316C198.852 21.316 199.344 21.118 199.754 20.722C200.165 20.3113 200.378 19.688 200.392 18.852V12.648H203.846V24H200.392ZM206.54 7.94H209.906V14.166C210.331 13.594 210.844 13.1393 211.446 12.802C212.047 12.4647 212.707 12.296 213.426 12.296C214.144 12.296 214.826 12.45 215.472 12.758C216.132 13.0513 216.704 13.4693 217.188 14.012C217.686 14.5547 218.075 15.1927 218.354 15.926C218.647 16.6447 218.794 17.4367 218.794 18.302C218.794 19.1673 218.647 19.974 218.354 20.722C218.075 21.4553 217.686 22.0933 217.188 22.636C216.704 23.164 216.132 23.582 215.472 23.89C214.826 24.198 214.144 24.352 213.426 24.352C212.707 24.352 212.047 24.1833 211.446 23.846C210.844 23.5087 210.331 23.0467 209.906 22.46V24H206.54V7.94ZM209.906 18.302C209.906 18.698 209.979 19.0647 210.126 19.402C210.272 19.7393 210.47 20.04 210.72 20.304C210.969 20.5533 211.255 20.7513 211.578 20.898C211.915 21.0447 212.274 21.118 212.656 21.118C213.037 21.118 213.396 21.052 213.734 20.92C214.071 20.7733 214.364 20.5753 214.614 20.326C214.863 20.062 215.061 19.7613 215.208 19.424C215.354 19.072 215.428 18.698 215.428 18.302C215.428 17.9207 215.354 17.5613 215.208 17.224C215.061 16.8867 214.863 16.5933 214.614 16.344C214.364 16.0947 214.071 15.8967 213.734 15.75C213.396 15.6033 213.037 15.53 212.656 15.53C212.274 15.53 211.915 15.6033 211.578 15.75C211.255 15.8967 210.969 16.0947 210.72 16.344C210.47 16.5933 210.272 16.8867 210.126 17.224C209.979 17.5613 209.906 17.9207 209.906 18.302Z" fill="white"/>
</svg>
