<svg width="32" height="32" viewBox="0 0 32 32" fill="none" xmlns="http://www.w3.org/2000/svg">
<g filter="url(#filter0_b_1280_3636)">
<rect width="32" height="32" rx="8" fill="#222222"/>
<path d="M13.75 16C13.75 17.2405 14.7595 18.25 16 18.25C17.2405 18.25 18.25 17.2405 18.25 16C18.25 14.7595 17.2405 13.75 16 13.75C14.7595 13.75 13.75 14.7595 13.75 16ZM13.75 23.5C13.75 24.7405 14.7595 25.75 16 25.75C17.2405 25.75 18.25 24.7405 18.25 23.5C18.25 22.2595 17.2405 21.25 16 21.25C14.7595 21.25 13.75 22.2595 13.75 23.5ZM13.75 8.5C13.75 9.7405 14.7595 10.75 16 10.75C17.2405 10.75 18.25 9.7405 18.25 8.5C18.25 7.2595 17.2405 6.25 16 6.25C14.7595 6.25 13.75 7.2595 13.75 8.5Z" fill="white"/>
</g>
<defs>
<filter id="filter0_b_1280_3636" x="-4" y="-4" width="40" height="40" filterUnits="userSpaceOnUse" color-interpolation-filters="sRGB">
<feFlood flood-opacity="0" result="BackgroundImageFix"/>
<feGaussianBlur in="BackgroundImageFix" stdDeviation="2"/>
<feComposite in2="SourceAlpha" operator="in" result="effect1_backgroundBlur_1280_3636"/>
<feBlend mode="normal" in="SourceGraphic" in2="effect1_backgroundBlur_1280_3636" result="shape"/>
</filter>
</defs>
</svg>
