<svg width="44" height="44" viewBox="0 0 44 44" fill="none" xmlns="http://www.w3.org/2000/svg">
<path d="M19.75 22C19.75 23.2405 20.7595 24.25 22 24.25C23.2405 24.25 24.25 23.2405 24.25 22C24.25 20.7595 23.2405 19.75 22 19.75C20.7595 19.75 19.75 20.7595 19.75 22ZM19.75 29.5C19.75 30.7405 20.7595 31.75 22 31.75C23.2405 31.75 24.25 30.7405 24.25 29.5C24.25 28.2595 23.2405 27.25 22 27.25C20.7595 27.25 19.75 28.2595 19.75 29.5ZM19.75 14.5C19.75 15.7405 20.7595 16.75 22 16.75C23.2405 16.75 24.25 15.7405 24.25 14.5C24.25 13.2595 23.2405 12.25 22 12.25C20.7595 12.25 19.75 13.2595 19.75 14.5Z" fill="#AD7955"/>
<rect x="0.5" y="0.5" width="43" height="43" rx="7.5" stroke="#AD7955"/>
</svg>
