<svg width="44" height="44" viewBox="0 0 44 44" fill="none" xmlns="http://www.w3.org/2000/svg">
<g clip-path="url(#clip0_87_621)">
<path d="M22.0008 24.8462C20.5513 24.8462 19.1344 24.4164 17.9292 23.6111C16.724 22.8058 15.7847 21.6612 15.23 20.3221C14.6753 18.9829 14.5301 17.5093 14.8129 16.0877C15.0957 14.6661 15.7937 13.3602 16.8186 12.3353C17.8436 11.3103 19.1494 10.6123 20.5711 10.3295C21.9927 10.0468 23.4663 10.1919 24.8054 10.7466C26.1446 11.3013 27.2892 12.2406 28.0945 13.4458C28.8998 14.651 29.3296 16.068 29.3296 17.5175C29.326 19.4601 28.5527 21.322 27.179 22.6957C25.8054 24.0693 23.9434 24.8426 22.0008 24.8462ZM22.0008 13.1175C21.1306 13.1175 20.2799 13.3755 19.5563 13.859C18.8328 14.3425 18.2688 15.0297 17.9358 15.8337C17.6027 16.6377 17.5156 17.5224 17.6854 18.3759C17.8552 19.2294 18.2742 20.0134 18.8896 20.6287C19.5049 21.2441 20.2889 21.6632 21.1424 21.8329C21.996 22.0027 22.8806 21.9156 23.6846 21.5825C24.4886 21.2495 25.1758 20.6856 25.6593 19.962C26.1428 19.2384 26.4008 18.3877 26.4008 17.5175C26.4008 16.3505 25.9373 15.2314 25.1121 14.4062C24.2869 13.581 23.1678 13.1175 22.0008 13.1175ZM36.6721 26.3175C35.5109 26.3175 34.3757 25.9731 33.4102 25.328C32.4447 24.6828 31.6921 23.7659 31.2478 22.6931C30.8034 21.6202 30.6871 20.4397 30.9137 19.3008C31.1402 18.1619 31.6994 17.1157 32.5205 16.2946C33.3416 15.4735 34.3878 14.9143 35.5267 14.6878C36.6656 14.4612 37.8461 14.5775 38.9189 15.0219C39.9917 15.4663 40.9087 16.2188 41.5539 17.1843C42.199 18.1499 42.5433 19.285 42.5433 20.4462C42.5433 22.0034 41.9248 23.4967 40.8237 24.5978C39.7226 25.6989 38.2292 26.3175 36.6721 26.3175ZM36.6721 17.5175C36.0928 17.5175 35.5266 17.6892 35.045 18.0111C34.5633 18.3329 34.1879 18.7903 33.9663 19.3254C33.7446 19.8606 33.6866 20.4495 33.7996 21.0176C33.9126 21.5857 34.1916 22.1076 34.6012 22.5172C35.0107 22.9268 35.5326 23.2057 36.1007 23.3187C36.6688 23.4317 37.2577 23.3737 37.7929 23.152C38.328 22.9304 38.7854 22.555 39.1073 22.0733C39.4291 21.5917 39.6008 21.0255 39.6008 20.4462C39.5972 19.6706 39.2875 18.9277 38.739 18.3793C38.1906 17.8308 37.4477 17.5211 36.6721 17.5175ZM7.32959 26.3175C6.16837 26.3175 5.03322 25.9731 4.0677 25.328C3.10217 24.6828 2.34964 23.7659 1.90526 22.6931C1.46088 21.6202 1.34461 20.4397 1.57115 19.3008C1.7977 18.1619 2.35688 17.1157 3.17799 16.2946C3.9991 15.4735 5.04525 14.9143 6.18417 14.6878C7.32308 14.4612 8.50359 14.5775 9.57642 15.0219C10.6493 15.4663 11.5662 16.2188 12.2114 17.1843C12.8565 18.1499 13.2008 19.285 13.2008 20.4462C13.2008 22.0034 12.5823 23.4967 11.4812 24.5978C10.3801 25.6989 8.88674 26.3175 7.32959 26.3175ZM7.32959 17.5175C6.75034 17.5175 6.18409 17.6892 5.70246 18.0111C5.22083 18.3329 4.84545 18.7903 4.62378 19.3254C4.40211 19.8606 4.34411 20.4495 4.45711 21.0176C4.57012 21.5857 4.84906 22.1076 5.25865 22.5172C5.66824 22.9268 6.1901 23.2057 6.75822 23.3187C7.32634 23.4317 7.91521 23.3737 8.45037 23.152C8.98553 22.9304 9.44294 22.555 9.76476 22.0733C10.0866 21.5917 10.2583 21.0255 10.2583 20.4462C10.2547 19.6706 9.945 18.9277 9.39653 18.3793C8.84807 17.8308 8.10523 17.5211 7.32959 17.5175ZM30.8008 36.3137C30.4291 36.311 30.0722 36.1678 29.8018 35.9127C29.5315 35.6576 29.3676 35.3096 29.3433 34.9387C29.2202 33.6793 28.6322 32.511 27.6941 31.6619C26.7559 30.8127 25.535 30.3436 24.2696 30.3462H19.7321C18.4667 30.3436 17.2458 30.8127 16.3076 31.6619C15.3695 32.511 14.7815 33.6793 14.6583 34.9387C14.5879 35.298 14.3861 35.618 14.0923 35.8364C13.7985 36.0548 13.4338 36.1558 13.0696 36.1197C12.7053 36.0836 12.3675 35.9131 12.1223 35.6413C11.877 35.3695 11.7419 35.016 11.7433 34.65C11.9543 32.681 12.8878 30.8601 14.3634 29.5394C15.839 28.2188 17.7518 27.4921 19.7321 27.5H24.2696C26.2627 27.4942 28.1863 28.2323 29.6638 29.57C31.1414 30.9077 32.0666 32.7486 32.2583 34.7325C32.2772 34.9291 32.2562 35.1274 32.1967 35.3157C32.1373 35.5041 32.0405 35.6785 31.9122 35.8286C31.7839 35.9787 31.6267 36.1015 31.4499 36.1896C31.2731 36.2776 31.0805 36.3292 30.8833 36.3412L30.8008 36.3137ZM42.5296 35.3237C42.1579 35.321 41.801 35.1778 41.5306 34.9227C41.2602 34.6676 41.0964 34.3196 41.0721 33.9487C41.0033 33.2291 40.6671 32.5616 40.1299 32.0778C39.5927 31.5941 38.8937 31.3295 38.1708 31.3362H35.1458C34.8573 31.3375 34.5703 31.3792 34.2933 31.46C34.1016 31.5674 33.8882 31.6304 33.6688 31.6446C33.4495 31.6587 33.2298 31.6234 33.0258 31.5415C32.8219 31.4595 32.6389 31.3329 32.4903 31.1709C32.3417 31.009 32.2313 30.8158 32.1672 30.6055C32.103 30.3953 32.0868 30.1734 32.1197 29.9561C32.1527 29.7387 32.2338 29.5316 32.3573 29.3497C32.4808 29.1679 32.6435 29.0161 32.8334 28.9053C33.0232 28.7946 33.2355 28.7279 33.4546 28.71C34.0037 28.5475 34.5732 28.4641 35.1458 28.4625H38.1708C39.6229 28.4522 41.0263 28.9855 42.1051 29.9574C43.1839 30.9294 43.8601 32.2697 44.0008 33.715C44.0197 33.9116 43.9987 34.1099 43.9392 34.2982C43.8798 34.4866 43.783 34.661 43.6547 34.8111C43.5264 34.9612 43.3692 35.084 43.1924 35.1721C43.0156 35.2601 42.823 35.3117 42.6258 35.3237H42.5296ZM1.47209 35.3237H1.37584C1.17872 35.3117 0.986038 35.2601 0.809277 35.1721C0.632517 35.084 0.475296 34.9612 0.346986 34.8111C0.218676 34.661 0.121902 34.4866 0.0624327 34.2982C0.00296343 34.1099 -0.0179841 33.9116 0.000838691 33.715C0.141337 32.2721 0.815612 30.9337 1.89152 29.9621C2.96743 28.9905 4.3674 28.4557 5.81709 28.4625H8.84209C9.41474 28.4641 9.98422 28.5475 10.5333 28.71C10.7524 28.7279 10.9647 28.7946 11.1546 28.9053C11.3444 29.0161 11.5071 29.1679 11.6306 29.3497C11.7541 29.5316 11.8353 29.7387 11.8682 29.9561C11.9011 30.1734 11.8849 30.3953 11.8208 30.6055C11.7566 30.8158 11.6462 31.009 11.4976 31.1709C11.349 31.3329 11.1661 31.4595 10.9621 31.5415C10.7582 31.6234 10.5384 31.6587 10.3191 31.6446C10.0998 31.6304 9.88636 31.5674 9.69459 31.46C9.41758 31.3792 9.13064 31.3375 8.84209 31.3362H5.81709C5.09426 31.3295 4.3952 31.5941 3.85803 32.0778C3.32086 32.5616 2.98465 33.2291 2.91584 33.9487C2.89173 34.3173 2.72986 34.6633 2.46238 34.9181C2.19491 35.1728 1.84141 35.3176 1.47209 35.3237Z" fill="white"/>
</g>
<defs>
<clipPath id="clip0_87_621">
<rect width="44" height="44" fill="white"/>
</clipPath>
</defs>
</svg>
