<svg width="40" height="40" viewBox="0 0 40 40" fill="none" xmlns="http://www.w3.org/2000/svg">
<rect width="40" height="40" rx="8" fill="#111111"/>
<path d="M28.1423 26.73L24.8993 23.487C25.8882 22.1978 26.4233 20.6178 26.4213 18.993C26.4213 17.008 25.6483 15.1425 24.2448 13.739C23.5565 13.0468 22.7377 12.4981 21.8358 12.1245C20.934 11.7509 19.967 11.5599 18.9908 11.5625C17.0063 11.5625 15.1408 12.3355 13.7368 13.739C10.8403 16.636 10.8403 21.35 13.7368 24.247C14.4251 24.9392 15.2439 25.488 16.1458 25.8616C17.0476 26.2352 18.0147 26.4262 18.9908 26.4235C20.6378 26.4235 22.1983 25.884 23.4853 24.901L26.7283 28.1445C26.9233 28.3395 27.1793 28.4375 27.4353 28.4375C27.6913 28.4375 27.9473 28.3395 28.1423 28.1445C28.2352 28.0516 28.3089 27.9414 28.3592 27.82C28.4095 27.6987 28.4354 27.5686 28.4354 27.4373C28.4354 27.3059 28.4095 27.1758 28.3592 27.0545C28.3089 26.9331 28.2352 26.8229 28.1423 26.73ZM15.1513 22.833C13.0338 20.7155 13.0343 17.2705 15.1513 15.153C15.6545 14.6473 16.253 14.2464 16.9121 13.9735C17.5712 13.7005 18.2779 13.561 18.9913 13.563C19.7046 13.561 20.4113 13.7006 21.0703 13.9735C21.7294 14.2464 22.3277 14.6473 22.8308 15.153C23.3367 15.6561 23.7377 16.2545 24.0107 16.9137C24.2837 17.5728 24.4233 18.2796 24.4213 18.993C24.4213 20.4435 23.8563 21.807 22.8308 22.833C21.8053 23.859 20.4418 24.423 18.9908 24.423C17.5408 24.423 16.1768 23.858 15.1508 22.833H15.1513Z" fill="white"/>
</svg>
