<svg width="18" height="18" viewBox="0 0 18 18" fill="none" xmlns="http://www.w3.org/2000/svg">
<path d="M17.1425 15.73L13.8995 12.487C14.8884 11.1978 15.4235 9.61783 15.4215 7.993C15.4215 6.008 14.6485 4.1425 13.245 2.739C12.5567 2.04682 11.7379 1.49805 10.836 1.12445C9.93416 0.750857 8.96716 0.559852 7.991 0.562497C6.0065 0.562497 4.141 1.3355 2.737 2.739C-0.159504 5.636 -0.159504 10.35 2.737 13.247C3.42532 13.9392 4.2441 14.488 5.14596 14.8616C6.04782 15.2352 7.01482 15.4262 7.991 15.4235C9.638 15.4235 11.1985 14.884 12.4855 13.901L15.7285 17.1445C15.9235 17.3395 16.1795 17.4375 16.4355 17.4375C16.6915 17.4375 16.9475 17.3395 17.1425 17.1445C17.2354 17.0516 17.3091 16.9414 17.3594 16.82C17.4097 16.6987 17.4355 16.5686 17.4355 16.4372C17.4355 16.3059 17.4097 16.1758 17.3594 16.0545C17.3091 15.9331 17.2354 15.8229 17.1425 15.73ZM4.1515 11.833C2.034 9.7155 2.0345 6.2705 4.1515 4.153C4.65468 3.64729 5.25315 3.24638 5.91227 2.97346C6.5714 2.70054 7.2781 2.56103 7.9915 2.563C8.70481 2.56104 9.41144 2.70055 10.0705 2.97347C10.7295 3.2464 11.3279 3.6473 11.831 4.153C12.3368 4.6561 12.7379 5.25455 13.0109 5.91368C13.2839 6.57282 13.4235 7.27956 13.4215 7.993C13.4215 9.4435 12.8565 10.807 11.831 11.833C10.8055 12.859 9.442 13.423 7.991 13.423C6.541 13.423 5.177 12.858 4.151 11.833H4.1515Z" fill="white"/>
</svg>
